<svg xmlns="http://www.w3.org/2000/svg" xmlns:xlink="http://www.w3.org/1999/xlink" xmlns:lucid="lucid" width="2068.35" height="1117.17"><g transform="translate(-187.87401574803147 -376.61732283466813)" lucid:page-tab-id="zdStzOF5Hni~"><path d="M0 0h2646.4v1870.4H0z" fill="#fff"/><path d="M699.2 1017.1c-45.2 0-81.88-36.7-81.88-81.9s36.7-81.9 81.9-81.9 81.88 36.7 81.88 81.9-36.68 81.9-81.9 81.9zm0-157.24c-41.6 0-75.33 33.74-75.33 75.34s33.74 75.34 75.34 75.34 75.35-33.74 75.35-75.34-33.74-75.34-75.34-75.34z" stroke="#fff" stroke-opacity="0" stroke-width="3" fill="#693cc5"/><path d="M748.06 958.1h-6.26V945c0-1.82-1.46-3.24-3.23-3.24h-9.9v-13.1c0-1.83-1.47-3.25-3.24-3.25H702.5v-9.84h22.93c1.77 0 3.23-1.52 3.23-3.25v-29.54c0-1.82-1.46-3.25-3.23-3.25H673c-1.78 0-3.24 1.44-3.24 3.26v29.55c0 1.74 1.46 3.26 3.23 3.26h22.93v9.85H673c-1.78 0-3.24 1.43-3.24 3.26v13.1h-9.8c-1.88 0-3.34 1.42-3.34 3.25v13.1h-6.26c-1.77 0-3.23 1.53-3.23 3.26v16.45c0 1.84 1.46 3.26 3.23 3.26h16.06c1.88 0 3.34-1.42 3.34-3.25v-16.44c0-1.73-1.46-3.25-3.34-3.25h-3.23v-9.84h16.36v9.85h-3.24c-1.87 0-3.33 1.53-3.33 3.26v16.45c0 1.84 1.45 3.26 3.32 3.26h16.37c1.77 0 3.23-1.42 3.23-3.25v-16.44c0-1.73-1.46-3.25-3.24-3.25h-6.58V945c0-1.82-1.45-3.24-3.33-3.24h-6.48v-9.85h45.78v9.86h-6.47c-1.88 0-3.34 1.42-3.34 3.25v13.1h-6.57c-1.78 0-3.24 1.53-3.24 3.26v16.45c0 1.84 1.45 3.26 3.23 3.26h16.37c1.87 0 3.33-1.42 3.33-3.25v-16.44c0-1.73-1.46-3.25-3.33-3.25h-3.24v-9.84h16.37v9.85h-3.54c-1.8 0-3.24 1.53-3.24 3.26v16.45c0 1.84 1.45 3.26 3.23 3.26h16.46c1.77 0 3.23-1.42 3.23-3.25v-16.44-.1c-.1-1.73-1.57-3.15-3.34-3.15zm-84.87 16.36h-9.5v-9.75h9.5zm26.16-9.75v9.76h-9.8v-9.75zm-13.04-55.74v-22.84h45.78v22.84zm42.54 65.5h-9.8v-9.75h9.8zm25.86 0h-9.8v-9.75h9.8z" stroke="#fff" stroke-opacity="0" stroke-width="3" fill="#693cc5"/><use xlink:href="#a" transform="matrix(1,0,0,1,587.3228346456692,1026.0897637795274) translate(7.624999999999986 14.4)"/><use xlink:href="#b" transform="matrix(1,0,0,1,587.3228346456692,1026.0897637795274) translate(100.475 14.4)"/><use xlink:href="#c" transform="matrix(1,0,0,1,587.3228346456692,1026.0897637795274) translate(145.47500000000002 14.4)"/><path d="M207.87 853.3h163.78v163.8H207.87V853.3z" stroke="#fff" stroke-opacity="0" fill="#693cc5"/><path d="M308.62 985.8l-3.9-2.06c2.22-4.1 3.7-7.8 5-12.33l4.18 1.24c-1.38 4.83-2.94 8.74-5.28 13.16zm4.07-39.98c-.8-12.84-4.42-23.53-11.52-34.22l3.64-2.36c7.57 11.3 11.42 22.7 12.24 36.27zm-28.82-52.72c-3.33-2.46-6.36-4.3-10.08-6.16l2-3.9c3.97 1.94 7.17 3.9 10.72 6.57zM301.77 951.36c-7.25-7.2-14.76-11.9-24.4-15.3l1.38-4.14c10.25 3.6 18.26 8.6 25.97 16.27zM319.77 977.43c-.8-2.18-1.73-4.2-2.73-6.22l3.9-1.93c1.14 2.25 2 4.2 2.9 6.55z" stroke="#fff" stroke-opacity="0" fill="#fff"/><path d="M307.38 986.85l-1.4-4.13c5.52-1.86 9.9-4.22 14.5-7.8l2.67 3.45c-5 3.88-9.76 6.46-15.77 8.48zM237.96 934.1l-1-4.23c5.1-1.25 9.53-1.83 14.8-1.94l.1 4.37c-4.94.1-9.1.64-13.9 1.8zM273.78 920.22l-3.67-2.4c3.38-5.47 6.92-9.7 11.74-13.96l2.88 3.3c-4.5 4-7.8 7.94-10.94 13.06zM306.25 894.32l-1.48-4.1c3.46-1.3 6.48-2.16 10.1-2.9l.8 4.38c-3.37.64-6.2 1.43-9.42 2.62zM263 982.15c-3.74-8.7-5.45-16.7-5.6-26.2.08-3.65.48-6.76 1.35-10.3.16-.78.33-1.55.48-2.37l4.38.85c-.15.82-.32 1.6-.48 2.4-.8 3.24-1.18 6.08-1.26 9.42.1 8.9 1.7 16.44 5.2 24.65z" stroke="#fff" stroke-opacity="0" fill="#fff"/><path d="M289.76 989.8c-30.13 0-54.6-24.5-54.6-54.56 0-1.2 0-2.2.12-3.4 1.42-23.28 16.5-42.3 38.87-48.97 14.74-4.38 28.93-2.84 42.25 4.7 26.3 14.76 35.7 48 20.96 74.34-3.7 6.68-8.08 11.82-14.2 16.52-10.03 7.66-20.73 11.37-33.4 11.37zm0-104.85c-5.13 0-9.5.65-14.3 2.18-20.64 6.23-34.5 23.62-35.8 45.05 0 1.1-.12 2.07-.12 3.06 0 27.66 22.5 50.18 50.22 50.18 5.8 0 10.7-.77 16.16-2.73 5.57-1.87 9.94-4.17 14.52-7.78 12.78-9.84 19.54-23.6 19.54-39.68 0-27.77-22.5-50.3-50.22-50.3z" stroke="#fff" stroke-opacity="0" fill="#fff"/><path d="M295.07 909.93c-5.34 0-9.67-4.33-9.67-9.67s4.33-9.67 9.67-9.67 9.67 4.32 9.67 9.66v.02c0 5.34-4.3 9.65-9.65 9.65h-.03zm0-14.95c-2.92 0-5.3 2.38-5.3 5.3 0 2.94 2.38 5.3 5.3 5.3s5.3-2.36 5.3-5.3c0-2.92-2.38-5.3-5.3-5.3zM265.28 940.4c-5.34 0-9.67-4.34-9.67-9.68s4.34-9.67 9.68-9.67 9.68 4.33 9.68 9.67c-.02 5.34-4.34 9.66-9.68 9.68zm0-14.98c-2.92 0-5.3 2.38-5.3 5.3s2.38 5.3 5.3 5.3c2.93 0 5.3-2.38 5.3-5.3v-.04c0-2.94-2.37-5.32-5.3-5.32zM313.3 968.4c-5.34 0-9.67-4.32-9.7-9.66 0-5.34 4.32-9.68 9.66-9.7 5.34 0 9.68 4.32 9.7 9.66v.04c0 5.34-4.32 9.65-9.66 9.65zm0-14.96h-.02c-2.92 0-5.3 2.38-5.3 5.3 0 2.94 2.38 5.3 5.3 5.3s5.3-2.36 5.3-5.3c0-2.92-2.36-5.3-5.28-5.3z" stroke="#fff" stroke-opacity="0" fill="#fff"/><use xlink:href="#d" transform="matrix(1,0,0,1,177.87401574803147,1026.0897637795276) translate(32.125 14.4)"/><use xlink:href="#e" transform="matrix(1,0,0,1,177.87401574803147,1026.0897637795276) translate(103.075 14.4)"/><path d="M1058.27 396.62h1177.95v1077.16H1058.27z" fill="#fff" fill-opacity="0"/><path d="M1070.2 396.62h7.97m7.95 0h7.96m7.96 0h7.96m7.96 0h7.96m7.96 0h7.96m7.96 0h7.96m7.96 0h7.96m7.95 0h7.96m7.95 0h7.96m7.97 0h7.96m7.96 0h7.95m7.96 0h7.97m7.96 0h7.95m7.96 0h7.96m7.96 0h7.96m7.96 0h7.96m7.96 0h7.96m7.96 0h7.96m7.96 0h7.95m7.95 0h7.96m7.97 0h7.96m7.96 0h7.95m7.96 0h7.97m7.96 0h7.96m7.95 0h7.95m7.96 0h7.96m7.96 0h7.96m7.96 0h7.96m7.96 0h7.96m7.96 0h7.96m7.95 0h7.96m7.97 0h7.96m7.96 0h7.95m7.96 0h7.97m7.96 0h7.96m7.95 0h7.96m7.96 0h7.96m7.96 0h7.96m7.96 0h7.96m7.96 0h7.96m7.96 0h7.96m7.96 0h7.96m7.95 0h7.96m7.96 0h7.95m7.96 0h7.97m7.96 0h7.96m7.95 0h7.96m7.97 0h7.95m7.96 0h7.96m7.96 0h7.96m7.96 0h7.96m7.96 0h7.96m7.96 0h7.96m7.96 0h7.95m7.96 0h7.95m7.96 0h7.97m7.96 0h7.96m7.95 0h7.96m7.97 0h7.96m7.95 0h7.96m7.96 0h7.96m7.96 0h7.96m7.96 0h7.96m7.96 0h7.96m7.96 0h7.96m7.95 0h7.95m7.96 0h7.97m7.96 0h7.96m7.95 0h7.96m7.97 0h7.96m7.96 0h7.95m7.95 0h7.96m7.96 0h7.96m7.96 0h3.98v4.02m0 8.04v8.03m0 8.05v8.04m0 8.03v8.04m0 8.04v8.04m0 8.04v8.04m0 8.04v8.04m0 8.04v8.04m0 8.03v8.05m0 8.04v8.03m0 8.04v8.04m0 8.05v8.03m0 8.04v8.04m0 8.04v8.04m0 8.04v8.04m0 8.03v8.04m0 8.03v8.04m0 8.04v8.05m0 8.04V690m0 8.04v8.04m0 8.04v8.04m0 8.04v8.04m0 8.03v8.03m0 8.04v8.04m0 8.05v8.04m0 8.03v8.03m0 8.04v8.04m0 8.04v8.04m0 8.04v8.04m0 8.03v8.04m0 8.04v8.05m0 8.04v8.03m0 8.04v8.03m0 8.04v8.04m0 8.04v8.04m0 8.04v8.03m0 8.04v8.04m0 8.05v8.04m0 8.03v8.04m0 8.03v8.04m0 8.04v8.04m0 8.04v8.04m0 8.04v8.03m0 8.04v8.05m0 8.04v8.03m0 8.04v8.04m0 8.04v8.04m0 8.04v8.04m0 8.04v8.04m0 8.04v8.03m0 8.05v8.04m0 8.03v8.04m0 8.04v8.05m0 8.03v8.04m0 8.04v8.04m0 8.04v8.04m0 8.04v8.03m0 8.04v8.03m0 8.04v8.04m0 8.05v8.04m0 8.02v8.04m0 8.04v8.04m0 8.04v8.04m0 8.04v8.03m0 8.03v8.04m0 8.04v8.05m0 8.04v8.02m0 8.04v4.02h-3.98m-7.96 0h-7.96m-7.96 0h-7.96m-7.95 0h-7.96m-7.97 0h-7.96m-7.96 0h-7.95m-7.96 0h-7.97m-7.96 0h-7.96m-7.95 0h-7.96m-7.96 0h-7.96m-7.96 0h-7.96m-7.96 0h-7.96m-7.96 0h-7.96m-7.96 0h-7.96m-7.96 0h-7.96m-7.95 0h-7.96m-7.96 0h-7.95m-7.96 0h-7.97m-7.96 0h-7.96m-7.95 0h-7.96m-7.97 0h-7.95m-7.96 0h-7.96m-7.96 0h-7.96m-7.96 0h-7.96m-7.96 0h-7.96m-7.96 0h-7.96m-7.96 0h-7.95m-7.96 0h-7.95m-7.96 0h-7.97m-7.96 0h-7.96m-7.95 0h-7.96m-7.97 0h-7.96m-7.95 0h-7.96m-7.96 0h-7.96m-7.96 0h-7.96m-7.96 0h-7.96m-7.96 0h-7.96m-7.96 0h-7.96m-7.95 0h-7.95m-7.96 0h-7.97m-7.96 0h-7.96m-7.95 0h-7.96m-7.97 0h-7.96m-7.96 0h-7.95m-7.95 0h-7.96m-7.96 0h-7.96m-7.96 0H1500m-7.96 0h-7.96m-7.96 0h-7.96m-7.96 0h-7.95m-7.96 0h-7.97m-7.96 0h-7.96m-7.95 0h-7.96m-7.97 0h-7.96m-7.96 0h-7.95m-7.96 0h-7.96m-7.96 0h-7.96m-7.96 0h-7.96m-7.96 0h-7.96m-7.96 0h-7.96m-7.96 0h-7.96m-7.96 0h-7.95m-7.96 0h-7.96m-7.95 0h-7.96m-7.97 0h-7.96m-7.96 0h-7.95m-7.96 0h-7.97m-7.95 0h-7.96m-7.96 0h-7.96m-7.96 0h-7.96m-7.96 0h-7.96m-7.96 0h-7.96m-7.96 0h-7.96m-7.95 0h-7.96m-7.95 0h-3.98v-4.02m0-8.04v-8.03m0-8.05v-8.04m0-8.03v-8.04m0-8.04v-8.04m0-8.04v-8.04m0-8.04v-8.04m0-8.04v-8.04m0-8.03v-8.05m0-8.04v-8.03m0-8.04V1309m0-8.05v-8.03m0-8.04v-8.04m0-8.04v-8.04m0-8.04v-8.04m0-8.03v-8.04m0-8.03v-8.04m0-8.04v-8.05m0-8.04v-8.02m0-8.04v-8.04m0-8.04v-8.04m0-8.04v-8.04m0-8.03v-8.03m0-8.04V1100m0-8.05v-8.04m0-8.03v-8.03m0-8.04v-8.04m0-8.04v-8.04m0-8.04v-8.04m0-8.03v-8.04m0-8.04v-8.05m0-8.04v-8.03m0-8.04v-8.03m0-8.04v-8.04m0-8.04v-8.04m0-8.04v-8.03m0-8.04V891m0-8.05v-8.04m0-8.03v-8.04m0-8.03v-8.04m0-8.04v-8.04m0-8.04v-8.04m0-8.04v-8.03m0-8.04v-8.05m0-8.04v-8.03m0-8.04v-8.04m0-8.04v-8.04m0-8.04v-8.04m0-8.04v-8.04m0-8.04V682m0-8.05v-8.04m0-8.03v-8.04m0-8.04v-8.05m0-8.03v-8.04m0-8.04v-8.04m0-8.04v-8.04m0-8.04v-8.03m0-8.04v-8.03m0-8.04v-8.04m0-8.05v-8.04m0-8.02v-8.04m0-8.04v-8.04m0-8.04v-8.04m0-8.04v-8.03m0-8.03v-8.04m0-8.04v-8.05m0-8.04v-8.02m0-8.04v-4.02h3.98" stroke="#d86613" stroke-width="2" fill="none"/><path d="M1058.27 396.62h56v56h-56v-56z" stroke="#fff" stroke-opacity="0" stroke-width="2" fill="#d86613"/><path d="M1076.78 423.8c.06.06.1.12.18.17.1.1.2.18.34.27l.08.06c.13.06.25.12.38.2l.23.1h.17l.17.07 1.17.42.7.18.36.1c1.97.48 3.68.7 5.7.67 3.08.06 5.7-.44 8.52-1.63 1.2-.56 1.92-1.66 1.94-3v-10.7c0-.47-.25-.87-.67-1.08l-9.28-4.3c-.3-.18-.67-.18-.98 0l-9.32 4.3c-.4.2-.67.6-.67 1.07v10.76c0 .84.3 1.55.83 2.2.04.05.08.1.15.14zm3.8.1l-.63-.2c-.4-.1-.73-.24-1.04-.34l-.26-.12-.25-.1-.26-.13-.2-.14-.08-.1-.06-.07-.06-.07c-.3-.35-.44-.73-.44-1.2v-9.83l8.22 3.86v9.13c-1.64-.03-3.02-.22-4.6-.6zm13.6-.8c-2.4 1.03-4.6 1.5-7.18 1.5v-9l8.22-3.75v9.57c.02.75-.38 1.38-1.05 1.7zm-7.9-16.37l8.25 3.85-8.14 3.65-.05-.04-8.03-3.74z" stroke="#fff" stroke-opacity="0" stroke-width="2" fill="#fff"/><path d="M1099.16 417.3l-.4 1.4c3.35 1 5.45 2.4 5.45 3.68 0 2.46-7.37 5.23-17.93 5.23-10.56 0-17.94-2.76-17.94-5.22 0-1.27 2.1-2.67 5.44-3.67l-.4-1.4c-4.2 1.2-6.52 3.03-6.52 5.08 0 4.35 10.02 6.72 19.42 6.72 9.4 0 19.4-2.37 19.4-6.72 0-2.05-2.32-3.85-6.5-5.1zM1099.12 431.45l-3.47-1.5c-.28-.13-.56-.13-.84 0l-3.54 1.52c-.33.17-.5.47-.5.83v3.85l-3.33-1.45c-.28-.14-.56-.14-.84 0l-3.35 1.45v-3.87c0-.37-.2-.7-.54-.83l-3.5-1.5c-.24-.13-.54-.13-.82 0l-3.55 1.52c-.33.17-.5.47-.5.83v4.54c0 .38.2.7.55.85l3.47 1.47h.08c.13.06.23.1.38.1.14 0 .26-.02.36-.1l3.38-1.44v3.85c0 .37.2.68.53.84l3.47 1.5h.05c.12.05.25.08.4.08.13 0 .25-.03.38-.08l3.55-1.53c.33-.18.5-.48.53-.85v-3.82l3.3 1.44h.1c.13.06.25.1.4.1.13 0 .23-.04.34-.1l3.57-1.48c.33-.17.5-.48.5-.83v-4.6c0-.36-.2-.68-.55-.82zm-3.9-.07l2.02.87-1.9.78-1.98-.85zm-8.22 4.77l2.03.86-1.9.76-1.98-.82zm-8.22-4.77l2.03.87-1.9.75-1.97-.82zm-3 1.95l2.27.95v3.14l-2.26-.96zm3.76 4.07v-2.98l2.24-.92v2.98zm4.47.68l2.26.97v3.1l-2.25-.95zm3.73 4.1v-3l2.26-.93v3zm4.5-8.85l2.22.95v3.14l-2.23-.96zm3.72 4.1v-3l2.26-.93v2.98z" stroke="#fff" stroke-opacity="0" stroke-width="2" fill="#fff"/><use xlink:href="#f" transform="matrix(1,0,0,1,1129.267716535433,416.61732283466813) translate(0 14.4)"/><use xlink:href="#g" transform="matrix(1,0,0,1,1129.267716535433,416.61732283466813) translate(41.95 14.4)"/><use xlink:href="#h" transform="matrix(1,0,0,1,1129.267716535433,416.61732283466813) translate(108.85000000000001 14.4)"/><path d="M1358.8 549.53h260.66V704.4H1358.8V549.52z" fill="#9d5025"/><path d="M1358.8 535.43h260.66V690.3H1358.8V535.43z" fill="#f58536"/><path d="M1415.1 544.7h12.28v136.4h-12.27V544.7zM1437.73 544.7H1450v136.4h-12.27V544.7zM1460.36 544.7h12.27v136.4h-12.27V544.7zM1369.86 544.7h12.27v136.4h-12.27V544.7zM1392.48 544.7h12.28v136.4h-12.28V544.7zM1482.98 544.7h12.28v136.4h-12.28V544.7zM1505.6 544.7h12.28v136.4h-12.27V544.7zM1528.23 544.7h12.28v136.4h-12.27V544.7zM1550.83 544.7h12.28v136.4h-12.27V544.7zM1573.46 544.7h12.27v136.4h-12.27V544.7zM1596.08 544.7h12.28v136.4h-12.28V544.7z" fill="#fbbf93"/><path d="M1373.06 548.38h9.1v132.7h-9.1V548.4zM1395.7 548.38h9.1v132.7h-9.1V548.4zM1418.3 548.38h9.1v132.7h-9.1V548.4zM1440.9 548.38h9.1v132.7h-9.1V548.4zM1463.54 548.38h9.1v132.7h-9.1V548.4zM1486.16 548.38h9.1v132.7h-9.1V548.4zM1508.8 548.38h9.08v132.7h-9.1V548.4zM1531.4 548.38h9.1v132.7h-9.1V548.4zM1554.04 548.38h9.1v132.7h-9.1V548.4zM1576.66 548.38h9.1v132.7h-9.1V548.4zM1599.3 548.38h9.08v132.7h-9.1V548.4z" fill="#fff"/><use xlink:href="#i" transform="matrix(1,0,0,1,1358.8053217485945,704.4094488188425) translate(54.93888888888897 35.7333333333333)"/><path d="M1358.8 1160.08h260.66v154.87H1358.8v-154.87z" fill="#9d5025"/><path d="M1358.8 1146h260.66v154.86H1358.8V1146z" fill="#f58536"/><path d="M1415.1 1155.25h12.28v136.4h-12.27v-136.4zM1437.73 1155.25H1450v136.4h-12.27v-136.4zM1460.36 1155.25h12.27v136.4h-12.27v-136.4zM1369.86 1155.25h12.27v136.4h-12.27v-136.4zM1392.48 1155.25h12.28v136.4h-12.28v-136.4zM1482.98 1155.25h12.28v136.4h-12.28v-136.4zM1505.6 1155.25h12.28v136.4h-12.27v-136.4zM1528.23 1155.25h12.28v136.4h-12.27v-136.4zM1550.83 1155.25h12.28v136.4h-12.27v-136.4zM1573.46 1155.25h12.27v136.4h-12.27v-136.4zM1596.08 1155.25h12.28v136.4h-12.28v-136.4z" fill="#fbbf93"/><path d="M1373.06 1158.93h9.1v132.72h-9.1v-132.72zM1395.7 1158.93h9.1v132.72h-9.1v-132.72zM1418.3 1158.93h9.1v132.72h-9.1v-132.72zM1440.9 1158.93h9.1v132.72h-9.1v-132.72zM1463.54 1158.93h9.1v132.72h-9.1v-132.72zM1486.16 1158.93h9.1v132.72h-9.1v-132.72zM1508.8 1158.93h9.08v132.72h-9.1v-132.72zM1531.4 1158.93h9.1v132.72h-9.1v-132.72zM1554.04 1158.93h9.1v132.72h-9.1v-132.72zM1576.66 1158.93h9.1v132.72h-9.1v-132.72zM1599.3 1158.93h9.08v132.72h-9.1v-132.72z" fill="#fff"/><use xlink:href="#j" transform="matrix(1,0,0,1,1358.8053217485945,1314.9669291338585) translate(48.73518518518529 35.7333333333333)"/><path d="M1358.8 854.8h260.66v154.87H1358.8V854.8z" fill="#9d5025"/><path d="M1358.8 840.7h260.66V995.6H1358.8V840.7z" fill="#f58536"/><path d="M1415.1 849.97h12.28v136.4h-12.27v-136.4zM1437.73 849.97H1450v136.4h-12.27v-136.4zM1460.36 849.97h12.27v136.4h-12.27v-136.4zM1369.86 849.97h12.27v136.4h-12.27v-136.4zM1392.48 849.97h12.28v136.4h-12.28v-136.4zM1482.98 849.97h12.28v136.4h-12.28v-136.4zM1505.6 849.97h12.28v136.4h-12.27v-136.4zM1528.23 849.97h12.28v136.4h-12.27v-136.4zM1550.83 849.97h12.28v136.4h-12.27v-136.4zM1573.46 849.97h12.27v136.4h-12.27v-136.4zM1596.08 849.97h12.28v136.4h-12.28v-136.4z" fill="#fbbf93"/><path d="M1373.06 853.66h9.1v132.7h-9.1v-132.7zM1395.7 853.66h9.1v132.7h-9.1v-132.7zM1418.3 853.66h9.1v132.7h-9.1v-132.7zM1440.9 853.66h9.1v132.7h-9.1v-132.7zM1463.54 853.66h9.1v132.7h-9.1v-132.7zM1486.16 853.66h9.1v132.7h-9.1v-132.7zM1508.8 853.66h9.08v132.7h-9.1v-132.7zM1531.4 853.66h9.1v132.7h-9.1v-132.7zM1554.04 853.66h9.1v132.7h-9.1v-132.7zM1576.66 853.66h9.1v132.7h-9.1v-132.7zM1599.3 853.66h9.08v132.7h-9.1v-132.7z" fill="#fff"/><use xlink:href="#k" transform="matrix(1,0,0,1,1358.8053217485945,1009.6881889763504) translate(42.531481481481606 35.733333333333285)"/><path d="M372.65 935.2h226.17" stroke="#000" stroke-width="2" fill="none"/><path d="M372.68 936.2h-1.03v-2h1.03z"/><path d="M614.1 935.2l-14.28 4.64v-9.28z" stroke="#000" stroke-width="2"/><path d="M782.1 935.2h558.2" stroke="#000" stroke-width="2" fill="none"/><path d="M782.13 936.2h-1.06l.03-1-.02-1h1.05z"/><path d="M1355.57 935.2l-14.27 4.64v-9.28z" stroke="#000" stroke-width="2"/><path d="M1489.13 1010.67v116.82" stroke="#000" stroke-width="2" fill="none"/><path d="M1490.13 1010.7h-2v-1.03h2z"/><path d="M1489.13 1142.75l-4.63-14.26h9.27z" stroke="#000" stroke-width="2"/><path d="M1489.13 839.7V722.9" stroke="#000" stroke-width="2" fill="none"/><path d="M1490.13 840.7h-2v-1h2z"/><path d="M1489.13 707.63l4.64 14.26h-9.27z" stroke="#000" stroke-width="2"/><path d="M1858.27 983.2c-.23 2.4 1.8 4.8 6.06 6.65l91.38 37.3c8.1 3.36 21.57 3.36 29.65 0l91.38-37.3c4.27-1.85 6.3-4.25 6.06-6.65v-21.4c.22 2.33-1.8 4.73-6.07 6.52l-91.38 37.3c-8.08 3.36-21.55 3.36-29.64 0l-91.37-37.3c-4.72-2-6.74-4.67-5.84-7.2l-.23 22.08z" stroke="#000" stroke-opacity="0" fill="#ba141a"/><path d="M2076.72 956.16c8.1 3.3 8.1 8.82 0 12.13l-91.37 37.38c-8.1 3.3-21.56 3.3-29.64 0l-91.37-37.4c-8.08-3.3-8.08-8.8 0-12.12l91.38-37.4c8.1-3.3 21.56-3.3 29.65 0l91.37 37.4z" stroke="#000" stroke-opacity="0" fill="#ba141a"/><path d="M1858.27 945.4c-.23 2.4 1.8 4.8 6.06 6.66l91.38 37.3c8.1 3.36 21.57 3.36 29.65 0l91.38-37.3c4.27-1.85 6.3-4.25 6.06-6.65V924c.22 2.35-1.8 4.75-6.07 6.53l-91.38 37.3c-8.08 3.36-21.55 3.36-29.64 0l-91.37-37.3c-4.72-2-6.74-4.66-5.84-7.2l-.23 22.08z" stroke="#000" stroke-opacity="0" fill="#ba141a"/><path d="M2076.72 918.37c8.1 3.3 8.1 8.82 0 12.13l-91.37 37.4c-8.1 3.3-21.56 3.3-29.64 0l-91.37-37.4c-8.08-3.3-8.08-8.82 0-12.13l91.38-37.4c8.1-3.3 21.56-3.3 29.65 0l91.37 37.4z" stroke="#000" stroke-opacity="0" fill="#ba141a"/><path d="M1858.27 907.62c-.23 2.4 1.8 4.8 6.06 6.65l91.38 37.3c8.1 3.37 21.57 3.37 29.65 0l91.38-37.3c4.27-1.85 6.3-4.25 6.06-6.65v-21.4c.22 2.34-1.8 4.74-6.07 6.52l-91.38 37.3c-8.08 3.37-21.55 3.37-29.64 0l-91.37-37.3c-4.72-2-6.74-4.66-5.84-7.2l-.23 22.08z" stroke="#000" stroke-opacity="0" fill="#ba141a"/><path d="M1858.27 983.2c-.23 2.4 1.8 4.8 6.06 6.65l91.38 37.3c8.1 3.36 21.57 3.36 29.65 0l91.38-37.3c4.27-1.85 6.3-4.25 6.06-6.65v-21.4c.22 2.33-1.8 4.73-6.07 6.52l-91.38 37.3c-8.08 3.36-21.55 3.36-29.64 0l-91.37-37.3c-4.72-2-6.74-4.67-5.84-7.2l-.23 22.08z" stroke="#000" stroke-opacity="0" fill="#93171b"/><path d="M1858.27 945.4c-.23 2.4 1.8 4.8 6.06 6.66l91.38 37.3c8.1 3.36 21.57 3.36 29.65 0l91.38-37.3c4.27-1.85 6.3-4.25 6.06-6.65V924c.22 2.35-1.8 4.75-6.07 6.53l-91.38 37.3c-8.08 3.36-21.55 3.36-29.64 0l-91.37-37.3c-4.72-2-6.74-4.66-5.84-7.2l-.23 22.08z" stroke="#000" stroke-opacity="0" fill="#93171b"/><path d="M1858.27 907.62c-.23 2.4 1.8 4.8 6.06 6.65l91.38 37.3c8.1 3.37 21.57 3.37 29.65 0l91.38-37.3c4.27-1.85 6.3-4.25 6.06-6.65v-21.4c.22 2.34-1.8 4.74-6.07 6.52l-91.38 37.3c-8.08 3.37-21.55 3.37-29.64 0l-91.37-37.3c-4.72-2-6.74-4.66-5.84-7.2l-.23 22.08z" stroke="#000" stroke-opacity="0" fill="#93171b"/><path d="M2076.72 880.6c8.1 3.3 8.1 8.8 0 12.1l-91.37 37.4c-8.1 3.3-21.56 3.3-29.64 0l-91.37-37.4c-8.08-3.3-8.08-8.8 0-12.1l91.38-37.4c8.1-3.32 21.56-3.32 29.65 0l91.37 37.4z" stroke="#000" stroke-opacity="0" fill="#ba141a"/><path d="M1942.44 893.7c-10.45 4.6-27.3 4.6-37.75 0-10.4-4.65-10.4-12.13 0-16.77 10.44-4.62 27.3-4.62 37.74 0 10.4 4.64 10.4 12.12 0 16.77zM1935.35 905.6l53.43-6.36-14.32 23.73-39.1-17.37z" stroke="#000" stroke-opacity="0" fill="#fff"/><path d="M2019.07 899.63l-31.95-14.2 31.95-14.18v28.38z" stroke="#000" stroke-opacity="0" fill="#76191c"/><path d="M1960.3 868.1l-20.88-1.88 18.55-4.66-2.44-9.4 15.72 6.4 19.34-3.94-8.86 8.6 14.4 6.98-21.15-1.08-10.5 8.24-4.2-9.27z" stroke="#000" stroke-opacity="0" fill="#fff"/><path d="M2051.02 885.44l-31.95-14.2v28.4l31.95-14.2z" fill="#93171b"/><use xlink:href="#l" transform="matrix(1,0,0,1,1828.267716535433,1038.6881889763504) translate(85.83333333333333 35.55555555555556)"/><path d="M1620.46 626.27h350.07v196.1" stroke="#000" stroke-width="2" fill="none"/><path d="M1620.5 627.27h-1.04v-2h1.03z"/><path d="M1970.53 837.63l-4.63-14.27h9.27z" stroke="#000" stroke-width="2"/><path d="M1620.46 1236.82h350.07v-188.8" stroke="#000" stroke-width="2" fill="none"/><path d="M1620.5 1237.82h-1.04v-2h1.03z"/><path d="M1970.53 1032.75l4.64 14.26h-9.27z" stroke="#000" stroke-width="2"/><path d="M1620.46 931.54h227.92" stroke="#000" stroke-width="2" fill="none"/><path d="M1620.5 932.54h-1.04v-2h1.03z"/><path d="M1863.64 931.54l-14.26 4.64v-9.27z" stroke="#000" stroke-width="2"/><path d="M617.32 1240.94H781.1v163.78H617.32v-163.78z" stroke="#fff" stroke-opacity="0" stroke-width="2" fill="#3b48cc"/><path d="M727.07 1329.36l-14.48 14.4c2.74-.76 4.97-1.64 7.5-3.06 1.48.88 2.3 2.3 2.6 3.93 0 4.04-8.48 8.4-21.03 10.15-4.16.54-7.58.76-11.73.76h-2.16c-17.68-.32-30.6-5.9-30.6-10.9.22-1.64 1.1-2.95 2.6-3.94 6.83 3.82 17.97 6.1 30.16 6.1h.22l1.26-4.35h-1.48c-12.04 0-23.18-2.4-29.05-6.1-2.38-1.54-3.72-3.28-3.72-4.7v-10.15c6.7 5.13 19.98 7.75 32.76 7.75 1.7 0 3.4 0 5.12-.1l1.26-4.37c-2.23.1-4.23.2-6.38.2-18.72 0-32.76-5.77-32.76-10.9.22-1.74 1.1-3.05 2.6-3.92 6.02 3.38 15.3 5.45 25.77 6l.15-4.37c-10.32-.55-19.68-2.73-24.8-6.12-2.38-1.4-3.65-3.16-3.72-4.7v-10.02c6.7 5.12 19.98 7.74 32.76 7.74h.44l2.38-4.36h-2.82c-18.72 0-32.76-5.68-32.76-10.9 0-5.14 14.04-10.92 32.76-10.92 6.6 0 12.25.65 18.7 2.18h12.04c-6.6-4.04-17.9-6.55-30.74-6.55-17.98 0-37.14 5.35-37.14 15.28V1301c.15 2.6 1.26 4.8 3.34 6.43-2.08 1.75-3.2 3.93-3.34 6.55v17.45c.15 2.73 1.26 4.9 3.34 6.66-2.08 1.62-3.2 3.8-3.34 6.53V1362.5c.6 9.6 19.38 14.73 37.14 14.73 17.75 0 36.54-5.12 37.13-14.83V1344.52c-.07-2.6-1.26-4.9-3.34-6.54 2.08-1.64 3.2-3.93 3.34-6.55zm-4.38 32.73c0 5.12-14.05 10.9-32.76 10.9-18.72 0-32.76-5.67-32.76-10.9v-10.05c6.7 5.02 19.98 7.75 32.76 7.75 12.77 0 26.07-2.73 32.75-7.75z" stroke="#fff" stroke-opacity="0" stroke-width="2" fill="#fff"/><path d="M666.46 1301.04c0 1.5-1.23 2.73-2.73 2.73s-2.73-1.22-2.73-2.73c0-1.5 1.22-2.73 2.73-2.73 1.5 0 2.73 1.23 2.73 2.74zM666.46 1331.6c0 1.52-1.23 2.74-2.73 2.74s-2.73-1.22-2.73-2.73c0-1.5 1.22-2.72 2.73-2.72 1.5 0 2.73 1.23 2.73 2.73zM666.46 1362.2c0 1.5-1.23 2.72-2.73 2.72s-2.73-1.23-2.73-2.73c0-1.52 1.22-2.74 2.73-2.74 1.5 0 2.73 1.22 2.73 2.73zM695.37 1353.36c-.38 0-.7-.07-1.1-.3-.87-.5-1.25-1.55-.98-2.52l12.25-40.87h-12.37c-1.2.07-2.18-.9-2.18-2.16 0-.36.05-.73.27-1.03l13.08-26.23c.38-.75 1.1-1.2 1.97-1.2h28.4c1.2-.07 2.2.9 2.24 2.1.06.3 0 .5-.05.8l-5.63 16.73h12.26c1.2.07 2.2 1.04 2.2 2.23 0 .6-.23 1.04-.6 1.48l-48.06 50.24c-.44.52-1 .74-1.7.74zm1.37-48h11.77c.72 0 1.32.3 1.76.8.38.6.55 1.28.33 1.95l-10.52 34.93 38.25-39.9h-10.18c-1.2 0-2.24-.9-2.3-2.08 0-.3 0-.6.1-.82l5.6-16.8H707.5z" stroke="#fff" stroke-opacity="0" stroke-width="2" fill="#fff"/><g><use xlink:href="#d" transform="matrix(1,0,0,1,587.3228346456308,1413.7244094487914) translate(30.599999999999994 14.4)"/><use xlink:href="#m" transform="matrix(1,0,0,1,587.3228346456308,1413.7244094487914) translate(101.55 14.4)"/></g><path d="M1357.8 931.54h-21v25.94h-266.85v365.35H799.6" stroke="#000" stroke-width="2" fill="none"/><path d="M1358.8 932.54h-1.02v-2h1.03z"/><path d="M784.34 1322.83l14.26-4.63v9.27z" stroke="#000" stroke-width="2"/><defs><path d="M205 0l-28-72H64L36 0H1l101-248h38L239 0h-34zm-38-99l-47-123c-12 45-31 82-46 123h93" id="n"/><path d="M115-194c55 1 70 41 70 98S169 2 115 4C84 4 66-9 55-30l1 105H24l-1-265h31l2 30c10-21 28-34 59-34zm-8 174c40 0 45-34 45-75s-6-73-45-74c-42 0-51 32-51 76 0 43 10 73 51 73" id="o"/><path d="M24 0v-261h32V0H24" id="p"/><path d="M24-231v-30h32v30H24zM24 0v-190h32V0H24" id="q"/><path d="M96-169c-40 0-48 33-48 73s9 75 48 75c24 0 41-14 43-38l32 2c-6 37-31 61-74 61-59 0-76-41-82-99-10-93 101-131 147-64 4 7 5 14 7 22l-32 3c-4-21-16-35-41-35" id="r"/><path d="M141-36C126-15 110 5 73 4 37 3 15-17 15-53c-1-64 63-63 125-63 3-35-9-54-41-54-24 1-41 7-42 31l-33-3c5-37 33-52 76-52 45 0 72 20 72 64v82c-1 20 7 32 28 27v20c-31 9-61-2-59-35zM48-53c0 20 12 33 32 33 41-3 63-29 60-74-43 2-92-5-92 41" id="s"/><path d="M59-47c-2 24 18 29 38 22v24C64 9 27 4 27-40v-127H5v-23h24l9-43h21v43h35v23H59v120" id="t"/><path d="M100-194c62-1 85 37 85 99 1 63-27 99-86 99S16-35 15-95c0-66 28-99 85-99zM99-20c44 1 53-31 53-75 0-43-8-75-51-75s-53 32-53 75 10 74 51 75" id="u"/><path d="M117-194c89-4 53 116 60 194h-32v-121c0-31-8-49-39-48C34-167 62-67 57 0H25l-1-190h30c1 10-1 24 2 32 11-22 29-35 61-36" id="v"/><g id="a"><use transform="matrix(0.05,0,0,0.05,0,0)" xlink:href="#n"/><use transform="matrix(0.05,0,0,0.05,12,0)" xlink:href="#o"/><use transform="matrix(0.05,0,0,0.05,22,0)" xlink:href="#o"/><use transform="matrix(0.05,0,0,0.05,32,0)" xlink:href="#p"/><use transform="matrix(0.05,0,0,0.05,35.95,0)" xlink:href="#q"/><use transform="matrix(0.05,0,0,0.05,39.900000000000006,0)" xlink:href="#r"/><use transform="matrix(0.05,0,0,0.05,48.900000000000006,0)" xlink:href="#s"/><use transform="matrix(0.05,0,0,0.05,58.900000000000006,0)" xlink:href="#t"/><use transform="matrix(0.05,0,0,0.05,63.900000000000006,0)" xlink:href="#q"/><use transform="matrix(0.05,0,0,0.05,67.85000000000001,0)" xlink:href="#u"/><use transform="matrix(0.05,0,0,0.05,77.85000000000001,0)" xlink:href="#v"/></g><path d="M30 0v-248h33v221h125V0H30" id="w"/><path d="M85-194c31 0 48 13 60 33l-1-100h32l1 261h-30c-2-10 0-23-3-31C134-8 116 4 85 4 32 4 16-35 15-94c0-66 23-100 70-100zm9 24c-40 0-46 34-46 75 0 40 6 74 45 74 42 0 51-32 51-76 0-42-9-74-50-73" id="x"/><g id="b"><use transform="matrix(0.05,0,0,0.05,0,0)" xlink:href="#w"/><use transform="matrix(0.05,0,0,0.05,10,0)" xlink:href="#u"/><use transform="matrix(0.05,0,0,0.05,20,0)" xlink:href="#s"/><use transform="matrix(0.05,0,0,0.05,30,0)" xlink:href="#x"/></g><path d="M160-131c35 5 61 23 61 61C221 17 115-2 30 0v-248c76 3 177-17 177 60 0 33-19 50-47 57zm-97-11c50-1 110 9 110-42 0-47-63-36-110-37v79zm0 115c55-2 124 14 124-45 0-56-70-42-124-44v89" id="y"/><path d="M100-194c63 0 86 42 84 106H49c0 40 14 67 53 68 26 1 43-12 49-29l28 8c-11 28-37 45-77 45C44 4 14-33 15-96c1-61 26-98 85-98zm52 81c6-60-76-77-97-28-3 7-6 17-6 28h103" id="z"/><path d="M114-163C36-179 61-72 57 0H25l-1-190h30c1 12-1 29 2 39 6-27 23-49 58-41v29" id="A"/><g id="c"><use transform="matrix(0.05,0,0,0.05,0,0)" xlink:href="#y"/><use transform="matrix(0.05,0,0,0.05,12,0)" xlink:href="#s"/><use transform="matrix(0.05,0,0,0.05,22,0)" xlink:href="#p"/><use transform="matrix(0.05,0,0,0.05,25.950000000000003,0)" xlink:href="#s"/><use transform="matrix(0.05,0,0,0.05,35.95,0)" xlink:href="#v"/><use transform="matrix(0.05,0,0,0.05,45.95,0)" xlink:href="#r"/><use transform="matrix(0.05,0,0,0.05,54.95,0)" xlink:href="#z"/><use transform="matrix(0.05,0,0,0.05,64.95,0)" xlink:href="#A"/></g><path d="M210-169c-67 3-38 105-44 169h-31v-121c0-29-5-50-35-48C34-165 62-65 56 0H25l-1-190h30c1 10-1 24 2 32 10-44 99-50 107 0 11-21 27-35 58-36 85-2 47 119 55 194h-31v-121c0-29-5-49-35-48" id="B"/><path d="M9 0v-24l116-142H16v-24h144v24L44-24h123V0H9" id="C"/><g id="d"><use transform="matrix(0.05,0,0,0.05,0,0)" xlink:href="#n"/><use transform="matrix(0.05,0,0,0.05,12,0)" xlink:href="#B"/><use transform="matrix(0.05,0,0,0.05,26.950000000000003,0)" xlink:href="#s"/><use transform="matrix(0.05,0,0,0.05,36.95,0)" xlink:href="#C"/><use transform="matrix(0.05,0,0,0.05,45.95,0)" xlink:href="#u"/><use transform="matrix(0.05,0,0,0.05,55.95,0)" xlink:href="#v"/></g><path d="M212-179c-10-28-35-45-73-45-59 0-87 40-87 99 0 60 29 101 89 101 43 0 62-24 78-52l27 14C228-24 195 4 139 4 59 4 22-46 18-125c-6-104 99-153 187-111 19 9 31 26 39 46" id="D"/><path d="M84 4C-5 8 30-112 23-190h32v120c0 31 7 50 39 49 72-2 45-101 50-169h31l1 190h-30c-1-10 1-25-2-33-11 22-28 36-60 37" id="E"/><path d="M63-220v92h138v28H63V0H30v-248h175v28H63" id="F"/><g id="e"><use transform="matrix(0.05,0,0,0.05,0,0)" xlink:href="#D"/><use transform="matrix(0.05,0,0,0.05,12.950000000000001,0)" xlink:href="#p"/><use transform="matrix(0.05,0,0,0.05,16.900000000000002,0)" xlink:href="#u"/><use transform="matrix(0.05,0,0,0.05,26.900000000000002,0)" xlink:href="#E"/><use transform="matrix(0.05,0,0,0.05,36.900000000000006,0)" xlink:href="#x"/><use transform="matrix(0.05,0,0,0.05,46.900000000000006,0)" xlink:href="#F"/><use transform="matrix(0.05,0,0,0.05,57.85,0)" xlink:href="#A"/><use transform="matrix(0.05,0,0,0.05,63.80000000000001,0)" xlink:href="#u"/><use transform="matrix(0.05,0,0,0.05,73.80000000000001,0)" xlink:href="#v"/><use transform="matrix(0.05,0,0,0.05,83.80000000000001,0)" xlink:href="#t"/></g><path fill="#d86613" d="M30 0v-248h187v28H63v79h144v27H63v87h162V0H30" id="G"/><path fill="#d86613" d="M212-179c-10-28-35-45-73-45-59 0-87 40-87 99 0 60 29 101 89 101 43 0 62-24 78-52l27 14C228-24 195 4 139 4 59 4 22-46 18-125c-6-104 99-153 187-111 19 9 31 26 39 46" id="H"/><path fill="#d86613" d="M185-189c-5-48-123-54-124 2 14 75 158 14 163 119 3 78-121 87-175 55-17-10-28-26-33-46l33-7c5 56 141 63 141-1 0-78-155-14-162-118-5-82 145-84 179-34 5 7 8 16 11 25" id="I"/><g id="f"><use transform="matrix(0.05,0,0,0.05,0,0)" xlink:href="#G"/><use transform="matrix(0.05,0,0,0.05,12,0)" xlink:href="#H"/><use transform="matrix(0.05,0,0,0.05,24.950000000000003,0)" xlink:href="#I"/></g><path fill="#d86613" d="M63-220v92h138v28H63V0H30v-248h175v28H63" id="J"/><path fill="#d86613" d="M141-36C126-15 110 5 73 4 37 3 15-17 15-53c-1-64 63-63 125-63 3-35-9-54-41-54-24 1-41 7-42 31l-33-3c5-37 33-52 76-52 45 0 72 20 72 64v82c-1 20 7 32 28 27v20c-31 9-61-2-59-35zM48-53c0 20 12 33 32 33 41-3 63-29 60-74-43 2-92-5-92 41" id="K"/><path fill="#d86613" d="M114-163C36-179 61-72 57 0H25l-1-190h30c1 12-1 29 2 39 6-27 23-49 58-41v29" id="L"/><path fill="#d86613" d="M177-190C167-65 218 103 67 71c-23-6-38-20-44-43l32-5c15 47 100 32 89-28v-30C133-14 115 1 83 1 29 1 15-40 15-95c0-56 16-97 71-98 29-1 48 16 59 35 1-10 0-23 2-32h30zM94-22c36 0 50-32 50-73 0-42-14-75-50-75-39 0-46 34-46 75s6 73 46 73" id="M"/><path fill="#d86613" d="M59-47c-2 24 18 29 38 22v24C64 9 27 4 27-40v-127H5v-23h24l9-43h21v43h35v23H59v120" id="N"/><path fill="#d86613" d="M100-194c63 0 86 42 84 106H49c0 40 14 67 53 68 26 1 43-12 49-29l28 8c-11 28-37 45-77 45C44 4 14-33 15-96c1-61 26-98 85-98zm52 81c6-60-76-77-97-28-3 7-6 17-6 28h103" id="O"/><g id="g"><use transform="matrix(0.05,0,0,0.05,0,0)" xlink:href="#J"/><use transform="matrix(0.05,0,0,0.05,10.950000000000001,0)" xlink:href="#K"/><use transform="matrix(0.05,0,0,0.05,20.950000000000003,0)" xlink:href="#L"/><use transform="matrix(0.05,0,0,0.05,26.900000000000002,0)" xlink:href="#M"/><use transform="matrix(0.05,0,0,0.05,36.900000000000006,0)" xlink:href="#K"/><use transform="matrix(0.05,0,0,0.05,46.900000000000006,0)" xlink:href="#N"/><use transform="matrix(0.05,0,0,0.05,51.900000000000006,0)" xlink:href="#O"/></g><path fill="#d86613" d="M100-194c62-1 85 37 85 99 1 63-27 99-86 99S16-35 15-95c0-66 28-99 85-99zM99-20c44 1 53-31 53-75 0-43-8-75-51-75s-53 32-53 75 10 74 51 75" id="P"/><path fill="#d86613" d="M117-194c89-4 53 116 60 194h-32v-121c0-31-8-49-39-48C34-167 62-67 57 0H25l-1-190h30c1 10-1 24 2 32 11-22 29-35 61-36" id="Q"/><path fill="#d86613" d="M24-231v-30h32v30H24zM24 0v-190h32V0H24" id="R"/><g id="h"><use transform="matrix(0.05,0,0,0.05,0,0)" xlink:href="#H"/><use transform="matrix(0.05,0,0,0.05,12.950000000000001,0)" xlink:href="#P"/><use transform="matrix(0.05,0,0,0.05,22.950000000000003,0)" xlink:href="#Q"/><use transform="matrix(0.05,0,0,0.05,32.95,0)" xlink:href="#N"/><use transform="matrix(0.05,0,0,0.05,37.95,0)" xlink:href="#K"/><use transform="matrix(0.05,0,0,0.05,47.95,0)" xlink:href="#R"/><use transform="matrix(0.05,0,0,0.05,51.900000000000006,0)" xlink:href="#Q"/><use transform="matrix(0.05,0,0,0.05,61.900000000000006,0)" xlink:href="#O"/><use transform="matrix(0.05,0,0,0.05,71.9,0)" xlink:href="#L"/></g><path d="M185-189c-5-48-123-54-124 2 14 75 158 14 163 119 3 78-121 87-175 55-17-10-28-26-33-46l33-7c5 56 141 63 141-1 0-78-155-14-162-118-5-82 145-84 179-34 5 7 8 16 11 25" id="S"/><path d="M106-169C34-169 62-67 57 0H25v-261h32l-1 103c12-21 28-36 61-36 89 0 53 116 60 194h-32v-121c2-32-8-49-39-48" id="T"/><g id="i"><use transform="matrix(0.12407407407407395,0,0,0.12407407407407395,0,0)" xlink:href="#S"/><use transform="matrix(0.12407407407407395,0,0,0.12407407407407395,29.777777777777747,0)" xlink:href="#t"/><use transform="matrix(0.12407407407407395,0,0,0.12407407407407395,42.18518518518514,0)" xlink:href="#q"/><use transform="matrix(0.12407407407407395,0,0,0.12407407407407395,51.987037037036984,0)" xlink:href="#t"/><use transform="matrix(0.12407407407407395,0,0,0.12407407407407395,64.39444444444437,0)" xlink:href="#r"/><use transform="matrix(0.12407407407407395,0,0,0.12407407407407395,86.72777777777769,0)" xlink:href="#T"/><use transform="matrix(0.12407407407407395,0,0,0.12407407407407395,111.54259259259248,0)" xlink:href="#z"/><use transform="matrix(0.12407407407407395,0,0,0.12407407407407395,136.35740740740727,0)" xlink:href="#A"/></g><path d="M143 4C61 4 22-44 18-125c-5-107 100-154 193-111 17 8 29 25 37 43l-32 9c-13-25-37-40-76-40-61 0-88 39-88 99 0 61 29 100 91 101 35 0 62-11 79-27v-45h-74v-28h105v86C228-13 192 4 143 4" id="U"/><path d="M115-194c53 0 69 39 70 98 0 66-23 100-70 100C84 3 66-7 56-30L54 0H23l1-261h32v101c10-23 28-34 59-34zm-8 174c40 0 45-34 45-75 0-40-5-75-45-74-42 0-51 32-51 76 0 43 10 73 51 73" id="V"/><g id="j"><use transform="matrix(0.12407407407407395,0,0,0.12407407407407395,0,0)" xlink:href="#U"/><use transform="matrix(0.12407407407407395,0,0,0.12407407407407395,34.740740740740705,0)" xlink:href="#A"/><use transform="matrix(0.12407407407407395,0,0,0.12407407407407395,49.5055555555555,0)" xlink:href="#s"/><use transform="matrix(0.12407407407407395,0,0,0.12407407407407395,74.32037037037028,0)" xlink:href="#V"/><use transform="matrix(0.12407407407407395,0,0,0.12407407407407395,99.13518518518507,0)" xlink:href="#V"/><use transform="matrix(0.12407407407407395,0,0,0.12407407407407395,123.94999999999985,0)" xlink:href="#z"/><use transform="matrix(0.12407407407407395,0,0,0.12407407407407395,148.76481481481463,0)" xlink:href="#A"/></g><path d="M240 0l2-218c-23 76-54 145-80 218h-23L58-218 59 0H30v-248h44l77 211c21-75 51-140 76-211h43V0h-30" id="W"/><path d="M177-190C167-65 218 103 67 71c-23-6-38-20-44-43l32-5c15 47 100 32 89-28v-30C133-14 115 1 83 1 29 1 15-40 15-95c0-56 16-97 71-98 29-1 48 16 59 35 1-10 0-23 2-32h30zM94-22c36 0 50-32 50-73 0-42-14-75-50-75-39 0-46 34-46 75s6 73 46 73" id="X"/><g id="k"><use transform="matrix(0.1240740740740739,0,0,0.1240740740740739,0,0)" xlink:href="#W"/><use transform="matrix(0.1240740740740739,0,0,0.1240740740740739,37.0981481481481,0)" xlink:href="#s"/><use transform="matrix(0.1240740740740739,0,0,0.1240740740740739,61.91296296296288,0)" xlink:href="#v"/><use transform="matrix(0.1240740740740739,0,0,0.1240740740740739,86.72777777777766,0)" xlink:href="#s"/><use transform="matrix(0.1240740740740739,0,0,0.1240740740740739,111.54259259259244,0)" xlink:href="#X"/><use transform="matrix(0.1240740740740739,0,0,0.1240740740740739,136.3574074074072,0)" xlink:href="#z"/><use transform="matrix(0.1240740740740739,0,0,0.1240740740740739,161.172222222222,0)" xlink:href="#A"/></g><path d="M233-177c-1 41-23 64-60 70L243 0h-38l-65-103H63V0H30v-248c88 3 205-21 203 71zM63-129c60-2 137 13 137-47 0-61-80-42-137-45v92" id="Y"/><path d="M135-143c-3-34-86-38-87 0 15 53 115 12 119 90S17 21 10-45l28-5c4 36 97 45 98 0-10-56-113-15-118-90-4-57 82-63 122-42 12 7 21 19 24 35" id="Z"/><g id="l"><use transform="matrix(0.12345679012345678,0,0,0.12345679012345678,0,0)" xlink:href="#Y"/><use transform="matrix(0.12345679012345678,0,0,0.12345679012345678,31.975308641975307,0)" xlink:href="#z"/><use transform="matrix(0.12345679012345678,0,0,0.12345679012345678,56.666666666666664,0)" xlink:href="#x"/><use transform="matrix(0.12345679012345678,0,0,0.12345679012345678,81.35802469135803,0)" xlink:href="#q"/><use transform="matrix(0.12345679012345678,0,0,0.12345679012345678,91.11111111111111,0)" xlink:href="#Z"/></g><path d="M30-248c118-7 216 8 213 122C240-48 200 0 122 0H30v-248zM63-27c89 8 146-16 146-99s-60-101-146-95v194" id="aa"/><path d="M179-190L93 31C79 59 56 82 12 73V49c39 6 53-20 64-50L1-190h34L92-34l54-156h33" id="ab"/><g id="m"><use transform="matrix(0.05,0,0,0.05,0,0)" xlink:href="#aa"/><use transform="matrix(0.05,0,0,0.05,12.950000000000001,0)" xlink:href="#ab"/><use transform="matrix(0.05,0,0,0.05,21.950000000000003,0)" xlink:href="#v"/><use transform="matrix(0.05,0,0,0.05,31.950000000000003,0)" xlink:href="#s"/><use transform="matrix(0.05,0,0,0.05,41.95,0)" xlink:href="#B"/><use transform="matrix(0.05,0,0,0.05,56.900000000000006,0)" xlink:href="#u"/><use transform="matrix(0.05,0,0,0.05,66.9,0)" xlink:href="#aa"/><use transform="matrix(0.05,0,0,0.05,79.85000000000001,0)" xlink:href="#y"/></g></defs></g></svg>